<?xml version="1.0" encoding="utf-8"?>
<svg version="1.1" xmlns="http://www.w3.org/2000/svg" xmlns:xlink="http://www.w3.org/1999/xlink" x="0px" y="0px"
	 viewBox="0 0 95 58.1" style="enable-background:new 0 0 95 58.1;" xml:space="preserve">
<style type="text/css">
	.st0{fill:none;stroke:#5CAF62;stroke-linecap:round;stroke-miterlimit:10;}
	.st1{fill:none;stroke:#5CAF62;stroke-linecap:round;stroke-linejoin:round;stroke-miterlimit:10;}
	.st2{fill:none;stroke:#5CAF62;stroke-linejoin:round;stroke-miterlimit:10;}
	.st3{fill:#43BF4C;}
	.st4{font-family:'Roboto';}
	.st5{font-size:20px;}
	.st6{fill:#AAAAAA;}
	.st7{font-size:6.7699px;}
</style>
<g>
	<g>
		<line class="st0" x1="65.1" y1="26.8" x2="62.2" y2="26.8"/>
		<line class="st0" x1="79.9" y1="26.8" x2="77" y2="26.8"/>
		<polyline class="st1" points="32.8,26.8 32.8,49.3 94.4,49.3 94.4,26.8 91.8,26.8 		"/>
		<polyline class="st2" points="79.9,26.8 79.9,23 91.8,23 91.8,26.8 		"/>
		<polyline class="st2" points="65.1,26.8 65.1,23 77,23 77,26.8 		"/>
	</g>
	<g>
		<line class="st0" x1="18.1" y1="4.4" x2="15" y2="4.4"/>
		<line class="st0" x1="32.9" y1="4.4" x2="30" y2="4.4"/>
		<line class="st0" x1="47.8" y1="4.4" x2="44.8" y2="4.4"/>
		<polyline class="st1" points="62.2,26.8 62.2,4.4 59.6,4.4 		"/>
		<polyline class="st1" points="3.2,4.4 0.6,4.4 0.6,26.8 32.8,26.8 		"/>
		<polyline class="st2" points="47.8,4.4 47.8,0.5 59.6,0.5 59.6,4.4 		"/>
		<polyline class="st2" points="32.9,4.4 32.9,0.5 44.8,0.5 44.8,4.4 		"/>
		<polyline class="st2" points="18.1,4.4 18.1,0.5 30,0.5 30,4.4 		"/>
		<polyline class="st2" points="3.2,4.4 3.2,0.5 15,0.5 15,4.4 		"/>
	</g>
</g>
<text transform="matrix(1 0 0 1 10 23)" class="st3 st4 st5">IPTV</text>
<text transform="matrix(1 0 0 1 45 45)" class="st3 st4 st5">PLC</text>
<text transform="matrix(1 0 0 1 0 58)" class="st6 st4 st7">IPTV PLAYLIST CONSTRUCTOR</text>
</svg>
