<?xml version="1.0" encoding="utf-8"?>
<!-- Generator: Adobe Illustrator 23.0.1, SVG Export Plug-In . SVG Version: 6.00 Build 0)  -->
<svg version="1.1" id="Слой_1" xmlns="http://www.w3.org/2000/svg" xmlns:xlink="http://www.w3.org/1999/xlink" x="0px" y="0px"
	 viewBox="0 0 260 260" style="enable-background:new 0 0 260 260;" xml:space="preserve">
<style type="text/css">
	.st0{fill:#1E9F27;stroke:#1E9F27;stroke-width:4;stroke-linecap:round;stroke-linejoin:round;stroke-miterlimit:10;}
</style>
<g>
	<g>
		<g>
			<polyline class="st0" points="5,136.9 5,227.8 135.7,227.8 255,227.8 255,136.9 244.4,136.9 			"/>
			<line class="st0" x1="136.1" y1="137.9" x2="124.3" y2="137.9"/>
			<line class="st0" x1="196.6" y1="137.9" x2="184.4" y2="137.9"/>
			<polyline class="st0" points="196.6,137.9 196.6,122.1 244.4,122.1 244.4,137.9 			"/>
			<polyline class="st0" points="136.1,137.9 136.1,122.1 184.4,122.1 184.4,137.9 			"/>
		</g>
	</g>
	<g>
		<g>
			<path class="st0" d="M124.3,137.9"/>
			<path class="st0" d="M15.6,137.9"/>
			<path class="st0" d="M5,137.9"/>
			<polyline class="st0" points="5,137.9 5,47 15.6,47 15.6,31.2 59.8,31.2 59.8,47 71.2,47 71.2,31.2 114.6,31.2 114.6,47 
				124.3,47 124.3,137.9 			"/>
		</g>
	</g>
</g>
</svg>
