<?xml version="1.0" standalone="no"?>
<!DOCTYPE svg PUBLIC "-//W3C//DTD SVG 20010904//EN"
 "http://www.w3.org/TR/2001/REC-SVG-20010904/DTD/svg10.dtd">
<svg version="1.0" xmlns="http://www.w3.org/2000/svg"
 width="700.000000pt" height="700.000000pt" viewBox="0 0 700.000000 700.000000"
 preserveAspectRatio="xMidYMid meet">
<metadata>
Created by potrace 1.11, written by Peter Selinger 2001-2013
</metadata>
<g transform="translate(0.000000,700.000000) scale(0.100000,-0.100000)"
fill="#000000" stroke="none">
<path d="M396 6205 c-28 -14 -31 -43 -31 -242 l1 -173 -128 0 c-121 0 -128 -1
-142 -22 -13 -20 -15 -334 -15 -2471 0 -2328 1 -2449 18 -2466 17 -17 178 -17
3405 -17 3335 1 3388 1 3402 20 12 17 14 207 14 1258 0 1223 0 1238 -20 1258
-18 18 -34 20 -143 20 l-123 0 0 180 c0 158 -2 182 -17 198 -16 16 -64 17
-678 18 -588 0 -663 -1 -680 -15 -18 -15 -19 -33 -22 -211 l-2 -195 -107 -3
-108 -3 -1 123 c0 68 0 155 1 195 2 121 72 110 -711 109 -652 -1 -671 -2 -685
-20 -11 -16 -14 -62 -14 -212 l0 -192 -105 0 -105 -1 0 1207 c0 742 -4 1213
-10 1222 -7 12 -36 16 -130 18 l-120 4 0 191 c0 106 -4 197 -8 203 -4 6 -16
15 -27 21 -12 5 -257 9 -612 8 -552 0 -594 -2 -610 -18 -16 -15 -18 -41 -20
-200 0 -100 -2 -188 -2 -194 -1 -10 -28 -13 -99 -13 l-98 0 0 196 c-1 167 -3
197 -17 212 -15 14 -74 16 -624 16 -389 1 -614 -3 -627 -9z"/>
</g>
</svg>
